<svg width="40" height="26" viewBox="0 0 40 26" fill="none" xmlns="http://www.w3.org/2000/svg">
<g id="Behance">
<path id="Vector" d="M11.3779 0.0508724C12.4446 0.0508724 13.5113 0.152618 14.5271 0.356111C15.3906 0.559603 16.2033 0.915715 16.9653 1.42445C17.6256 1.93318 18.1843 2.59453 18.5399 3.35763C18.9462 4.32422 19.1494 5.34168 19.0986 6.35915C19.1494 7.47836 18.8446 8.59756 18.2859 9.56415C17.6764 10.4799 16.8129 11.1921 15.8478 11.65C17.2192 12.0061 18.3875 12.8709 19.1494 13.9901C19.9113 15.2111 20.2669 16.6355 20.2669 18.06C20.2669 19.2301 20.0637 20.3493 19.5558 21.3667C19.0986 22.2824 18.4383 23.0455 17.6764 23.7069C16.8637 24.3174 15.8986 24.7752 14.9335 25.0296C13.9176 25.3348 12.8509 25.4366 11.7843 25.4366H0V0H11.3779V0.0508724ZM10.6668 10.3273C11.4795 10.3781 12.343 10.1238 13.0033 9.61503C13.6636 9.05542 14.0192 8.19058 13.9176 7.27486C13.9176 6.76613 13.816 6.2574 13.6128 5.79954C13.4097 5.44343 13.1557 5.13819 12.8001 4.9347C12.4446 4.7312 12.0382 4.52771 11.6319 4.47684C11.1747 4.37509 10.7176 4.37509 10.2604 4.37509H5.2826V10.3273H10.6668ZM10.9715 21.2141C11.4795 21.2141 11.9874 21.1632 12.4446 21.0615C12.9017 20.9597 13.3081 20.7562 13.7144 20.5019C14.07 20.2475 14.3748 19.8914 14.5779 19.4844C14.8319 18.9757 14.9335 18.4161 14.8827 17.8565C14.9843 16.7881 14.5779 15.7707 13.816 15.0585C13.0033 14.448 12.0382 14.1936 11.0223 14.2445H5.2826V21.265H10.9715V21.2141Z" fill="white"/>
<path id="Vector_2" d="M27.7844 21.1124C28.6479 21.8755 29.7654 22.2824 30.8829 22.2316C31.7972 22.2316 32.6607 21.9772 33.3718 21.4685C33.9813 21.0615 34.3877 20.5019 34.6416 19.8405H38.8576C38.4004 21.7228 37.2829 23.4017 35.7591 24.5717C34.2861 25.5892 32.5083 26.0471 30.6797 25.9962C29.4098 25.9962 28.14 25.7927 26.9209 25.284C25.8542 24.8261 24.8892 24.1648 24.1272 23.2999C23.3653 22.3842 22.7558 21.3667 22.3494 20.2475C21.8923 18.9757 21.6891 17.653 21.7399 16.3303C21.7399 15.0076 21.9431 13.7358 22.4002 12.4639C23.6193 8.9028 26.9717 6.51176 30.7305 6.56264C32.1019 6.51176 33.4226 6.86787 34.6416 7.47835C35.7083 8.08883 36.6734 8.9028 37.3845 9.92027C38.0957 10.9886 38.6544 12.1587 38.9084 13.4305C39.2131 14.7532 39.3147 16.1777 39.2639 17.5512H26.667C26.5146 18.8231 26.9209 20.0949 27.7844 21.1124ZM33.2702 11.3956C32.5591 10.6834 31.594 10.3273 30.5781 10.3781C29.9178 10.3781 29.2575 10.4799 28.6987 10.7851C28.2416 11.0395 27.8352 11.3956 27.4797 11.8026C27.1749 12.2096 26.9717 12.6165 26.8193 13.1253C26.7178 13.5323 26.6162 13.9392 26.6162 14.3462H34.4385C34.3369 13.2779 33.9305 12.2604 33.2702 11.3956Z" fill="white"/>
<path id="Vector_3" d="M35.3528 1.72969H25.6003V4.22247H35.3528V1.72969Z" fill="white"/>
</g>
</svg>
