<svg width="39" height="38" viewBox="0 0 39 38" fill="none" xmlns="http://www.w3.org/2000/svg">
<g id="GitHub">
<path id="Vector" d="M19.5002 0C8.73193 0 0 8.72175 0 19.481C0 28.0883 5.58739 35.3906 13.3354 37.9665C14.31 38.1468 14.6677 37.5439 14.6677 37.0294C14.6677 36.5648 14.6497 35.0302 14.6413 33.4024C9.2163 34.5809 8.07157 31.1039 8.07157 31.1039C7.18452 28.8522 5.90643 28.2534 5.90643 28.2534C4.13718 27.0443 6.03979 27.0692 6.03979 27.0692C7.99795 27.2066 9.02901 29.0767 9.02901 29.0767C10.7682 32.0549 13.5908 31.1939 14.7036 30.6961C14.8786 29.437 15.384 28.5776 15.9416 28.0912C11.6104 27.5986 7.0573 25.9281 7.0573 18.4636C7.0573 16.3367 7.81905 14.5988 9.06647 13.2346C8.864 12.7439 8.19654 10.7625 9.25538 8.07914C9.25538 8.07914 10.8929 7.55556 14.6193 10.076C16.1748 9.64438 17.843 9.42792 19.5002 9.4205C21.1574 9.42792 22.8268 9.64438 24.3852 10.076C28.1071 7.55556 29.7424 8.07914 29.7424 8.07914C30.8038 10.7625 30.136 12.7439 29.9335 13.2346C31.1839 14.5988 31.9404 16.3367 31.9404 18.4636C31.9404 25.9459 27.3786 27.5934 23.0364 28.0757C23.7358 28.6802 24.3591 29.8658 24.3591 31.6833C24.3591 34.2899 24.3365 36.3877 24.3365 37.0294C24.3365 37.5478 24.6875 38.1552 25.6759 37.9639C33.4197 35.3851 39 28.0854 39 19.481C39 8.72175 30.2694 0 19.5002 0ZM7.30344 27.7511C7.2605 27.8479 7.10808 27.8769 6.96923 27.8105C6.82779 27.7469 6.74835 27.615 6.79421 27.5179C6.83619 27.4182 6.98893 27.3905 7.13004 27.4572C7.2718 27.5208 7.35253 27.654 7.30344 27.7511ZM8.26264 28.6062C8.16964 28.6923 7.98784 28.6523 7.86448 28.5162C7.73693 28.3803 7.71304 28.1987 7.80733 28.1113C7.90323 28.0252 8.07954 28.0655 8.20742 28.2013C8.33497 28.3387 8.35983 28.5191 8.26264 28.6062ZM8.92068 29.7002C8.8012 29.7831 8.60584 29.7053 8.48507 29.5321C8.36559 29.3588 8.36559 29.1511 8.48765 29.0679C8.60874 28.9846 8.8012 29.0595 8.92358 29.2314C9.04274 29.4076 9.04274 29.6153 8.92068 29.7002ZM10.0336 30.9671C9.92668 31.0849 9.69903 31.0533 9.5324 30.8926C9.3619 30.7355 9.31444 30.5126 9.42164 30.3949C9.52982 30.2768 9.75877 30.31 9.92668 30.4694C10.0959 30.6262 10.1476 30.8507 10.0336 30.9671ZM11.4719 31.3949C11.4247 31.5475 11.2055 31.6168 10.9846 31.552C10.764 31.4852 10.6197 31.3065 10.6643 31.1523C10.7101 30.9987 10.9303 30.9265 11.1528 30.9958C11.3731 31.0623 11.5177 31.2397 11.4719 31.3949ZM13.1087 31.5763C13.1142 31.7369 12.9269 31.8702 12.6951 31.8731C12.4619 31.8782 12.2733 31.7482 12.2708 31.5902C12.2708 31.4279 12.4538 31.296 12.687 31.2921C12.9188 31.2876 13.1087 31.4166 13.1087 31.5763ZM14.7167 31.5147C14.7445 31.6715 14.5834 31.8325 14.3531 31.8754C14.1268 31.9167 13.9172 31.8199 13.8885 31.6644C13.8604 31.5037 14.0244 31.3428 14.2504 31.3012C14.481 31.2612 14.6873 31.3554 14.7167 31.5147Z" fill="white"/>
</g>
</svg>
